<svg width="24" height="24" viewBox="0 0 24 24" fill="none" xmlns="http://www.w3.org/2000/svg">
<path fill-rule="evenodd" clip-rule="evenodd" d="M12 24C18.6274 24 24 18.6274 24 12C24 5.37258 18.6274 0 12 0C5.37258 0 0 5.37258 0 12C0 18.6274 5.37258 24 12 24ZM6.006 8.2C6.006 7.54 6.54 7 7.2 7H16.8C17.46 7 18 7.54 18 8.2V15.4C18 16.06 17.46 16.6 16.8 16.6H7.2C6.54 16.6 6 16.06 6 15.4L6.006 8.2ZM12.318 12.202L16.56 9.55C16.71 9.454 16.8 9.292 16.8 9.118C16.8 8.716 16.362 8.476 16.02 8.686L12 11.2L7.98 8.686C7.638 8.476 7.2 8.716 7.2 9.118C7.2 9.292 7.29 9.454 7.44 9.55L11.682 12.202C11.874 12.322 12.126 12.322 12.318 12.202Z" fill="#CCCCCC"/>
</svg>
