<svg width="28" height="28" viewBox="0 0 28 28" fill="none" xmlns="http://www.w3.org/2000/svg">
<path d="M7.64551 19.1738H12.9893V13.7861C12.9893 13.2412 13.4551 12.7842 14.0088 12.7842C14.5625 12.7842 15.0195 13.2412 15.0195 13.7861V19.1738H20.8555C23.457 19.1738 25.2148 17.5742 25.2148 15.3945C25.2148 13.584 24.1514 11.9756 22.4111 11.2725C22.4199 7.2998 19.5635 4.43457 15.8809 4.43457C13.5342 4.43457 11.7939 5.64746 10.6865 7.23828C8.60352 6.71973 6.11621 8.30176 6.03711 10.7803C4.02441 11.1318 2.78516 12.8984 2.78516 14.9814C2.78516 17.3105 4.71875 19.1738 7.64551 19.1738ZM14.0088 24.5352C14.2197 24.5352 14.4131 24.4648 14.624 24.2627L17.5684 21.415C17.7178 21.2656 17.8057 21.1074 17.8057 20.8965C17.8057 20.4922 17.4717 20.2021 17.0762 20.2021C16.874 20.2021 16.6719 20.2812 16.5312 20.4395L15.3008 21.749L14.7383 22.3994L14.8174 21.0898V19.0684C14.8174 18.6465 14.457 18.2773 14.0088 18.2773C13.5605 18.2773 13.1914 18.6465 13.1914 19.0684V21.0898L13.2793 22.3994L12.7168 21.749L11.4775 20.4395C11.3369 20.2812 11.126 20.2021 10.9326 20.2021C10.5283 20.2021 10.2119 20.4922 10.2119 20.8965C10.2119 21.1074 10.291 21.2656 10.4404 21.415L13.3936 24.2627C13.6045 24.4648 13.7979 24.5352 14.0088 24.5352Z" fill="#CCCCCC"/>
</svg>
