<svg width="92" height="92" viewBox="0 0 92 92" fill="none" xmlns="http://www.w3.org/2000/svg">
<path d="M46 47.0589C46.722 47.0589 47.3573 46.8278 48.0793 46.1348L57.7535 36.8071C58.2444 36.3161 58.5332 35.7963 58.5332 35.0744C58.5332 33.7171 57.4358 32.7641 56.1074 32.7641C55.4432 32.7641 54.779 33.024 54.317 33.5438L50.274 37.8467L48.4836 39.9837L48.7146 35.6808V11.1342C48.7146 9.69029 47.5017 8.4774 46 8.4774C44.5272 8.4774 43.3143 9.69029 43.3143 11.1342V35.6808L43.5165 39.9837L41.726 37.8467L37.7119 33.5438C37.2499 33.024 36.5568 32.7641 35.8926 32.7641C34.5642 32.7641 33.4957 33.7171 33.4957 35.0744C33.4957 35.7963 33.7556 36.3161 34.2465 36.8071L43.9497 46.1348C44.6427 46.8278 45.3069 47.0589 46 47.0589ZM21.2802 75.5329H70.691C76.9576 75.5329 80.2209 72.2985 80.2209 66.1186V49.5713C80.2209 46.6546 79.8454 45.2107 78.517 43.3913L68.9294 30.4249C65.5795 25.8622 63.2404 23.6674 57.9557 23.6674H54.0571V28.4035H58.2444C60.2659 28.4035 62.2874 30.0784 63.5581 31.7822L73.3767 45.4706C74.3586 46.7701 74.012 47.3188 72.5392 47.3188H55.2988C53.6239 47.3188 52.8731 48.4739 52.8731 49.7157V49.8312C52.8731 53.21 50.2451 56.8486 46 56.8486C41.7549 56.8486 39.127 53.21 39.127 49.8312V49.7157C39.127 48.4739 38.3761 47.3188 36.7012 47.3188H19.4608C17.9591 47.3188 17.6704 46.6835 18.5945 45.4706L28.4131 31.7822C29.7126 30.0784 31.7341 28.4035 33.7556 28.4035H37.943V23.6674H34.0155C28.7308 23.6674 26.4205 25.8622 23.0706 30.4249L13.4541 43.3913C12.1257 45.2107 11.7792 46.6546 11.7792 49.5713V66.1186C11.7792 72.2985 15.0424 75.5329 21.2802 75.5329Z" fill="#CCCCCC"/>
</svg>
