<svg width="92" height="92" viewBox="0 0 92 92" fill="none" xmlns="http://www.w3.org/2000/svg">
<path d="M17.2372 70.3242H74.7339C79.9898 70.3242 82.7332 67.6674 82.7332 62.3249V28.9993C82.7332 23.6568 79.9898 21 74.7339 21H17.2372C11.9813 21 9.23785 23.6568 9.23785 28.9993V62.3249C9.23785 67.6674 11.9813 70.3242 17.2372 70.3242ZM17.6126 64.7218C15.7066 64.7218 14.8403 63.9421 14.8403 61.9784V29.3458C14.8403 27.3821 15.7066 26.6024 17.6126 26.6024H74.3585C76.2645 26.6024 77.1308 27.3821 77.1308 29.3458V61.9784C77.1308 63.9421 76.2645 64.7218 74.3585 64.7218H17.6126ZM39.0692 58.8018C39.7911 58.8018 40.3976 58.5707 41.0907 58.1953L57.869 48.3189C59.0819 47.597 59.7172 46.7306 59.7172 45.6332C59.7172 44.5647 59.1108 43.7273 57.869 43.0053L41.0907 33.1289C40.3976 32.7535 39.7911 32.5225 39.0692 32.5225C37.6253 32.5225 36.4413 33.591 36.4413 35.5547V55.7407C36.4413 57.7044 37.6541 58.8018 39.0692 58.8018Z" fill="#CCCCCC"/>
</svg>
