<svg width="92" height="92" viewBox="0 0 92 92" fill="none" xmlns="http://www.w3.org/2000/svg">
    <path d="M30.6079 76.1682H61.3922C67.601 76.1682 70.8065 72.905 70.8065 66.6673V40.8211H49.1478C45.538 40.8211 43.8053 39.0884 43.8053 35.4787V13.5889H30.6079C24.4279 13.5889 21.1935 16.8521 21.1935 23.1187V66.6673C21.1935 72.905 24.4279 76.1682 30.6079 76.1682ZM49.6964 36.6049H70.5177C70.3445 35.2765 69.3915 34.0347 67.8898 32.5042L52.0933 16.5056C50.6494 15.0328 49.3499 14.0509 48.0215 13.8777V34.93C48.0504 36.0562 48.5991 36.6049 49.6964 36.6049ZM34.7952 53.6143C33.5534 53.6143 32.6582 52.719 32.6582 51.5639C32.6582 50.4088 33.5534 49.5135 34.7952 49.5135H57.2914C58.4755 49.5135 59.3996 50.4088 59.3996 51.5639C59.3996 52.719 58.4755 53.6143 57.2914 53.6143H34.7952ZM34.7952 64.4436C33.5534 64.4436 32.6582 63.5484 32.6582 62.3933C32.6582 61.2381 33.5534 60.3429 34.7952 60.3429H57.2914C58.4755 60.3429 59.3996 61.2381 59.3996 62.3933C59.3996 63.5484 58.4755 64.4436 57.2914 64.4436H34.7952Z" fill="#CCCCCC"/>
</svg>
