<svg width="92" height="92" viewBox="0 0 92 92" fill="none" xmlns="http://www.w3.org/2000/svg">
<path d="M17.2372 70.3242H74.7339C79.9898 70.3242 82.7332 67.6674 82.7332 62.3249V28.9993C82.7332 23.6568 79.9898 21 74.7339 21H17.2372C11.9813 21 9.23785 23.6568 9.23785 28.9993V62.3249C9.23785 67.6674 11.9813 70.3242 17.2372 70.3242ZM14.8403 29.3458C14.8403 27.3821 15.7066 26.6024 17.6126 26.6024H74.3585C76.2645 26.6024 77.1308 27.3821 77.1308 29.3458V59.4371L61.5654 44.8535C60.2948 43.6695 58.7931 43.0919 57.2337 43.0919C55.6742 43.0919 54.2303 43.6406 52.9019 44.8246L38.6649 57.56L32.1095 51.6688C30.9255 50.5714 29.5971 50.0227 28.2109 50.0227C26.8825 50.0227 25.6696 50.5714 24.5145 51.611L14.8403 60.2746V29.3458ZM33.9866 45.5466C37.7408 45.5466 40.8596 42.4277 40.8596 38.5869C40.8596 34.8039 37.7408 31.6561 33.9866 31.6561C30.1458 31.6561 26.998 34.8039 26.998 38.5869C26.998 42.4277 30.1458 45.5466 33.9866 45.5466Z" fill="#CCCCCC"/>
</svg>
