<svg width="92" height="92" viewBox="0 0 92 92" fill="none" xmlns="http://www.w3.org/2000/svg">
<path d="M17.2372 70.3242H74.7339C79.9898 70.3242 82.7332 67.6674 82.7332 62.3249V28.9993C82.7332 23.6568 79.9898 21 74.7339 21H17.2372C11.9813 21 9.23785 23.6568 9.23785 28.9993V62.3249C9.23785 67.6674 11.9813 70.3242 17.2372 70.3242ZM17.6126 64.7218C15.7066 64.7218 14.8403 63.9421 14.8403 61.9784V29.3458C14.8403 27.3821 15.7066 26.6024 17.6126 26.6024H74.3585C76.2645 26.6024 77.1308 27.3821 77.1308 29.3458V61.9784C77.1308 63.9421 76.2645 64.7218 74.3585 64.7218H17.6126ZM54.548 40.1463C55.9919 39.7998 56.4251 39.4533 56.4251 37.7494V32.0893C56.4251 30.9053 55.963 30.4143 54.4036 30.7898L45.9711 32.8979C44.4983 33.2444 44.1807 33.591 44.1807 35.3237V47.9435C44.1807 49.1564 44.094 49.3585 42.679 49.734L40.0511 50.427C37.3076 51.149 35.1706 52.7951 35.1706 55.5963C35.1706 58.1087 37.0766 59.8991 40.0222 59.8991C44.1807 59.8991 47.0107 56.9247 47.0107 52.6795V43.1786C47.0107 42.1678 47.2129 41.9079 47.8193 41.7924L54.548 40.1463Z" fill="#CCCCCC"/>
</svg>
