<svg width="28" height="28" viewBox="0 0 28 28" fill="none" xmlns="http://www.w3.org/2000/svg">
<path d="M13.9912 15.9746C14.4395 15.9746 14.8086 15.6055 14.8086 15.1748V6.32422L14.7383 5.01465L15.2832 5.65625L16.5225 6.97461C16.6631 7.13281 16.8652 7.21191 17.0674 7.21191C17.4629 7.21191 17.7881 6.92188 17.7881 6.50879C17.7881 6.29785 17.709 6.13965 17.5596 5.99023L14.6064 3.15137C14.4043 2.94043 14.2109 2.87012 13.9912 2.87012C13.7803 2.87012 13.5869 2.94043 13.3848 3.15137L10.4316 5.99023C10.2822 6.13965 10.1943 6.29785 10.1943 6.50879C10.1943 6.92188 10.5195 7.21191 10.915 7.21191C11.1172 7.21191 11.3281 7.13281 11.4688 6.97461L12.6992 5.65625L13.2529 5.01465L13.1826 6.32422V15.1748C13.1826 15.6055 13.5518 15.9746 13.9912 15.9746ZM8.9375 22.9795H19.0537C20.9521 22.9795 21.9365 22.0039 21.9365 20.1318V11.4746C21.9365 9.60254 20.9521 8.62695 19.0537 8.62695H16.6719V10.3496H18.9482C19.7568 10.3496 20.2139 10.7715 20.2139 11.624V19.9824C20.2139 20.835 19.7568 21.2568 18.9482 21.2568H9.04297C8.22559 21.2568 7.77734 20.835 7.77734 19.9824V11.624C7.77734 10.7715 8.22559 10.3496 9.04297 10.3496H11.3369V8.62695H8.9375C7.03906 8.62695 6.05469 9.60254 6.05469 11.4746V20.1318C6.05469 22.0039 7.03906 22.9795 8.9375 22.9795Z" fill="#CCCCCC"/>
</svg>
