<?xml version="1.0" standalone="no"?>
<!DOCTYPE svg PUBLIC "-//W3C//DTD SVG 20010904//EN"
 "http://www.w3.org/TR/2001/REC-SVG-20010904/DTD/svg10.dtd">
<svg version="1.0" xmlns="http://www.w3.org/2000/svg"
 width="1000.000000pt" height="1000.000000pt" viewBox="0 0 1000.000000 1000.000000"
 preserveAspectRatio="xMidYMid meet">
<metadata>
Created by potrace 1.11, written by Peter Selinger 2001-2013
</metadata>
<g transform="translate(0.000000,1000.000000) scale(0.100000,-0.100000)"
fill="#000000" stroke="none">
<path d="M4200 7995 l-795 -795 433 -432 432 -433 365 365 365 365 365 -365
365 -365 432 433 433 432 -795 795 c-437 437 -797 795 -800 795 -3 0 -363
-358 -800 -795z"/>
<path d="M2000 5795 l-795 -795 798 -797 797 -798 432 432 433 433 -365 365
-365 365 365 365 365 365 -430 430 c-236 237 -432 430 -435 430 -3 0 -363
-358 -800 -795z"/>
<path d="M6765 6160 l-430 -430 365 -365 365 -365 -365 -365 -365 -365 433
-433 432 -432 797 798 798 797 -795 795 c-437 437 -797 795 -800 795 -3 0
-199 -193 -435 -430z"/>
<path d="M4650 5345 l-345 -345 348 -348 347 -347 347 347 348 348 -345 345
c-190 190 -347 345 -350 345 -3 0 -160 -155 -350 -345z"/>
<path d="M3835 3230 l-430 -430 798 -798 797 -797 797 798 798 797 -432 432
-433 433 -365 -365 -365 -365 -363 363 c-199 199 -364 362 -367 362 -3 0 -199
-194 -435 -430z"/>
</g>
</svg>
